#define logo_ninf_width 64
#define logo_ninf_height 64
static unsigned char logo_ninf_bits[] = {
   0x00, 0x00, 0x00, 0x00, 0x00, 0x00, 0x00, 0x00, 0x00, 0x00, 0x00, 0x00,
   0x00, 0x00, 0x00, 0x00, 0x00, 0x00, 0x00, 0x00, 0x00, 0x00, 0x00, 0x00,
   0x00, 0x00, 0x10, 0x00, 0x00, 0x18, 0x00, 0x00, 0x00, 0x00, 0x02, 0x00,
   0x00, 0x40, 0x00, 0x00, 0x00, 0x80, 0x01, 0x00, 0x00, 0x80, 0x01, 0x00,
   0x00, 0x00, 0x00, 0x00, 0x00, 0x00, 0x02, 0x00, 0x00, 0x20, 0x04, 0x00,
   0x0c, 0x00, 0x04, 0x00, 0x00, 0x48, 0x00, 0x00, 0x0a, 0x00, 0x00, 0x00,
   0x00, 0xc4, 0x00, 0x00, 0x06, 0x00, 0x20, 0x00, 0x00, 0x82, 0x08, 0x66,
   0xec, 0x90, 0x41, 0x00, 0x00, 0x80, 0x21, 0x91, 0x09, 0x51, 0x84, 0x00,
   0x00, 0x10, 0x21, 0x10, 0x21, 0x28, 0x00, 0x00, 0x80, 0x00, 0xb4, 0x19,
   0x20, 0x72, 0x02, 0x00, 0x40, 0x00, 0x00, 0x00, 0x00, 0x02, 0x00, 0x02,
   0x00, 0x00, 0x00, 0x00, 0x00, 0x00, 0x00, 0x00, 0x00, 0x00, 0x00, 0x00,
   0x00, 0x00, 0x00, 0x00, 0x00, 0x00, 0x00, 0x00, 0x00, 0x00, 0x00, 0x00,
   0x00, 0x00, 0x00, 0x00, 0x00, 0x00, 0x00, 0x00, 0x00, 0x00, 0x00, 0x00,
   0x00, 0x00, 0x00, 0x00, 0x00, 0x00, 0x00, 0x00, 0x1c, 0x00, 0x00, 0x00,
   0x00, 0x00, 0x00, 0x00, 0x1f, 0x00, 0x00, 0x00, 0x00, 0x00, 0x10, 0x00,
   0x0f, 0x00, 0x00, 0x00, 0x00, 0x00, 0x18, 0x80, 0x01, 0x00, 0x00, 0x00,
   0x00, 0x00, 0x38, 0x80, 0x00, 0x00, 0x00, 0x00, 0x00, 0x00, 0x38, 0xc0,
   0x00, 0x00, 0x00, 0x00, 0x00, 0x00, 0x38, 0x40, 0x00, 0x00, 0x00, 0x00,
   0x00, 0x00, 0x64, 0x40, 0x00, 0x00, 0x00, 0x00, 0x00, 0x00, 0x64, 0x40,
   0x00, 0x00, 0x00, 0x00, 0x00, 0x00, 0x64, 0x60, 0x00, 0x00, 0x00, 0x00,
   0x00, 0x00, 0xc4, 0x20, 0x00, 0x00, 0x00, 0x00, 0x00, 0x00, 0xc6, 0x20,
   0x00, 0x00, 0x00, 0x00, 0x00, 0x00, 0xc2, 0x21, 0x00, 0x00, 0x00, 0x00,
   0x00, 0x00, 0x82, 0x31, 0x00, 0x00, 0x00, 0x00, 0x00, 0x00, 0x83, 0x11,
   0xf0, 0x80, 0x03, 0x00, 0x00, 0x00, 0x81, 0x13, 0xd8, 0x61, 0x0c, 0x00,
   0x00, 0x00, 0x01, 0x13, 0x0c, 0x33, 0x08, 0x00, 0x00, 0x80, 0x01, 0x1f,
   0x04, 0x1e, 0x10, 0x00, 0x00, 0x90, 0x00, 0x0e, 0x00, 0x0c, 0x00, 0x00,
   0x00, 0xf8, 0x00, 0x0c, 0x00, 0x1c, 0x00, 0x00, 0x00, 0x70, 0x00, 0x00,
   0x04, 0x3c, 0x10, 0x00, 0x00, 0x00, 0x00, 0x00, 0x04, 0x32, 0x08, 0x00,
   0x00, 0x00, 0x00, 0x00, 0x88, 0xe1, 0x0c, 0x00, 0x00, 0x00, 0x00, 0x00,
   0xf0, 0x80, 0x03, 0x00, 0x00, 0x00, 0x00, 0x00, 0x00, 0x00, 0x00, 0x00,
   0x00, 0x00, 0x00, 0x00, 0x00, 0x00, 0x00, 0x00, 0x00, 0x00, 0x00, 0x00,
   0x00, 0x00, 0x00, 0x00, 0x00, 0x00, 0x00, 0x00, 0x00, 0x00, 0x00, 0x00,
   0x00, 0x00, 0x00, 0x00, 0x00, 0x00, 0x00, 0x04, 0x40, 0x80, 0x03, 0x00,
   0x00, 0x00, 0x00, 0x02, 0x00, 0xc0, 0x06, 0x00, 0x00, 0x00, 0x00, 0x00,
   0x00, 0x80, 0x00, 0x00, 0x00, 0x00, 0x00, 0x00, 0x00, 0xc1, 0x58, 0x1a,
   0x23, 0x13, 0x84, 0x00, 0x00, 0x42, 0x40, 0x10, 0x48, 0x10, 0x41, 0x00,
   0x00, 0x44, 0x30, 0x01, 0x41, 0x10, 0x22, 0x00, 0x00, 0x08, 0x28, 0x81,
   0x44, 0x88, 0x10, 0x00, 0x00, 0x00, 0x40, 0x22, 0x80, 0x00, 0x00, 0x00,
   0x00, 0x40, 0x00, 0x00, 0x00, 0x00, 0x00, 0x00, 0x00, 0x80, 0x01, 0x00,
   0x00, 0x00, 0x01, 0x00, 0x00, 0x00, 0x02, 0x00, 0x00, 0x40, 0x00, 0x00,
   0x00, 0x00, 0x18, 0x00, 0x00, 0x18, 0x00, 0x00, 0x00, 0x00, 0x00, 0x00,
   0x00, 0x00, 0x00, 0x00, 0x00, 0x00, 0x00, 0x00, 0x00, 0x00, 0x00, 0x00,
   0x00, 0x00, 0x00, 0x00, 0x00, 0x00, 0x00, 0x00 };
